HIERARCHY
ROOT Hips
{
	OFFSET 0.0 87.035881 0.0
	CHANNELS 6 Xposition Yposition Zposition Zrotation Yrotation Xrotation 
	JOINT Spine
	{
		OFFSET 0.000000 8.814246 -2.080107
		CHANNELS 3 Zrotation Yrotation Xrotation
		JOINT Spine1
		{
			OFFSET 0.000000 8.844141 0.000000
			CHANNELS 3 Zrotation Yrotation Xrotation
			JOINT Spine2
			{
				OFFSET -0.000000 11.682268 0.000000
				CHANNELS 3 Zrotation Yrotation Xrotation
				JOINT Spine3
				{
					OFFSET 0.000000 11.746700 0.000000
					CHANNELS 3 Zrotation Yrotation Xrotation
					JOINT Neck
					{
						OFFSET -0.000000 17.658264 -0.000000
						CHANNELS 3 Zrotation Yrotation Xrotation
						JOINT Neck1
						{
							OFFSET 0.000000 5.101515 0.000000
							CHANNELS 3 Zrotation Yrotation Xrotation
							JOINT Head
							{
								OFFSET 0.000000 5.101515 -0.000000
								CHANNELS 3 Zrotation Yrotation Xrotation
								JOINT HeadEnd
								{
									OFFSET 0.000000 11.655085 0.000000
									CHANNELS 3 Zrotation Yrotation Xrotation
									End Site
									{
										OFFSET 0.000000 0.000000 0.000000
									}
								}
							}
						}
					}
					JOINT RightShoulder
					{
						OFFSET -2.625389 11.175210 -0.000000
						CHANNELS 3 Zrotation Yrotation Xrotation
						JOINT RightArm
						{
							OFFSET -10.434715 -0.0 0.0
							CHANNELS 3 Zrotation Yrotation Xrotation
							JOINT RightForeArm
							{
								OFFSET -29.62842 -0.0 -0.0
								CHANNELS 3 Zrotation Yrotation Xrotation
								JOINT RightHand
								{
									OFFSET -22.857611 -0.0 0.0
									CHANNELS 3 Zrotation Yrotation Xrotation
									JOINT RightHandThumb1
									{
										OFFSET -3.959563 -2.867323 2.944291
										CHANNELS 3 Zrotation Yrotation Xrotation
										JOINT RightHandThumb2
										{
											OFFSET -3.350399 -0.0 0.0
											CHANNELS 3 Zrotation Yrotation Xrotation
											JOINT RightHandThumb3
											{
												OFFSET -3.756509 0.0 0.0
												CHANNELS 3 Zrotation Yrotation Xrotation
												JOINT RightHandThumb4
												{
													OFFSET -3.147345 0.0 0.0
													CHANNELS 3 Zrotation Yrotation Xrotation
													End Site
													{
														OFFSET 0.000000 0.000000 0.000000
													}
												}
											}
										}
									}
									JOINT RightHandIndex1
									{
										OFFSET -10.030893 -0.086752 2.34528
										CHANNELS 3 Zrotation Yrotation Xrotation
										JOINT RightHandIndex2
										{
											OFFSET -4.06109 -0.0 -0.0
											CHANNELS 3 Zrotation Yrotation Xrotation
											JOINT RightHandIndex3
											{
												OFFSET -3.248873 0.0 0.0
												CHANNELS 3 Zrotation Yrotation Xrotation
												JOINT RightHandIndex4
												{
													OFFSET -2.639709 -0.0 -0.0
													CHANNELS 3 Zrotation Yrotation Xrotation
													End Site
													{
														OFFSET 0.000000 0.000000 0.000000
													}
												}
											}
										}
									}
									JOINT RightHandMiddle1
									{
										OFFSET -9.502952 0.104102 0.006768
										CHANNELS 3 Zrotation Yrotation Xrotation
										JOINT RightHandMiddle2
										{
											OFFSET -4.568727 -0.0 0.0
											CHANNELS 3 Zrotation Yrotation Xrotation
											JOINT RightHandMiddle3
											{
												OFFSET -3.654981 0.0 0.0
												CHANNELS 3 Zrotation Yrotation Xrotation
												JOINT RightHandMiddle4
												{
													OFFSET -2.741236 0.0 0.0
													CHANNELS 3 Zrotation Yrotation Xrotation
													End Site
													{
														OFFSET 0.000000 0.000000 0.000000
													}
												}
											}
										}
									}
									JOINT RightHandRing1
									{
										OFFSET -8.921708 0.086752 -2.267442
										CHANNELS 3 Zrotation Yrotation Xrotation
										JOINT RightHandRing2
										{
											OFFSET -4.06109 0.0 0.0
											CHANNELS 3 Zrotation Yrotation Xrotation
											JOINT RightHandRing3
											{
												OFFSET -3.654981 -0.0 -0.0
												CHANNELS 3 Zrotation Yrotation Xrotation
												JOINT RightHandRing4
												{
													OFFSET -2.741236 -0.0 0.0
													CHANNELS 3 Zrotation Yrotation Xrotation
													End Site
													{
														OFFSET 0.000000 0.000000 0.000000
													}
												}
											}
										}
									}
									JOINT RightHandPinky1
									{
										OFFSET -7.976997 -0.173504 -4.467199
										CHANNELS 3 Zrotation Yrotation Xrotation
										JOINT RightHandPinky2
										{
											OFFSET -3.350399 0.0 0.0
											CHANNELS 3 Zrotation Yrotation Xrotation
											JOINT RightHandPinky3
											{
												OFFSET -2.842763 -0.0 -0.0
												CHANNELS 3 Zrotation Yrotation Xrotation
												JOINT RightHandPinky4
												{
													OFFSET -2.639709 -0.0 -0.0
													CHANNELS 3 Zrotation Yrotation Xrotation
													End Site
													{
														OFFSET 0.000000 0.000000 0.000000
													}
												}
											}
										}
									}
									JOINT RightForeArmEnd
									{
										OFFSET 0.000000 0.000000 0.000000
										CHANNELS 3 Zrotation Yrotation Xrotation
										End Site
										{
											OFFSET 0.000000 0.000000 0.000000
										}
									}
								}
								JOINT RightArmEnd
								{
									OFFSET 0.000000 0.000000 0.000000
									CHANNELS 3 Zrotation Yrotation Xrotation
									End Site
									{
										OFFSET 0.000000 0.000000 0.000000
									}
								}
							}
						}
					}
					JOINT LeftShoulder
					{
						OFFSET 2.625389 11.175210 0.000000
						CHANNELS 3 Zrotation Yrotation Xrotation
						JOINT LeftArm
						{
							OFFSET 10.813635 0.0 0.0
							CHANNELS 3 Zrotation Yrotation Xrotation
							JOINT LeftForeArm
							{
								OFFSET 28.724781 0.0 -0.0
								CHANNELS 3 Zrotation Yrotation Xrotation
								JOINT LeftHand
								{
									OFFSET 25.716167 -0.644384 -0.328871
									CHANNELS 3 Zrotation Yrotation Xrotation
									JOINT LeftHandThumb1
									{
										OFFSET 3.959563 -2.867323 2.944291
										CHANNELS 3 Zrotation Yrotation Xrotation
										JOINT LeftHandThumb2
										{
											OFFSET 3.350399 0.0 0.0
											CHANNELS 3 Zrotation Yrotation Xrotation
											JOINT LeftHandThumb3
											{
												OFFSET 3.756509 0.0 -0.0
												CHANNELS 3 Zrotation Yrotation Xrotation
												JOINT LeftHandThumb4
												{
													OFFSET 3.1 0.0 0.0
													CHANNELS 3 Zrotation Yrotation Xrotation
													End Site
													{
														OFFSET 0.000000 0.000000 0.000000
													}
												}
											}
										}
									}
									JOINT LeftHandIndex1
									{
										OFFSET 10.030893 -0.086752 2.34528
										CHANNELS 3 Zrotation Yrotation Xrotation
										JOINT LeftHandIndex2
										{
											OFFSET 4.06109 0.0 0.0
											CHANNELS 3 Zrotation Yrotation Xrotation
											JOINT LeftHandIndex3
											{
												OFFSET 3.248873 0.0 -0.0
												CHANNELS 3 Zrotation Yrotation Xrotation
												JOINT LeftHandIndex4
												{
													OFFSET 2.639709 0.0 0.0
													CHANNELS 3 Zrotation Yrotation Xrotation
													End Site
													{
														OFFSET 0.000000 0.000000 0.000000
													}
												}
											}
										}
									}
									JOINT LeftHandMiddle1
									{
										OFFSET 9.502952 0.104102 0.006768
										CHANNELS 3 Zrotation Yrotation Xrotation
										JOINT LeftHandMiddle2
										{
											OFFSET 4.568727 0.0 0.0
											CHANNELS 3 Zrotation Yrotation Xrotation
											JOINT LeftHandMiddle3
											{
												OFFSET 3.654981 0.0 -0.0
												CHANNELS 3 Zrotation Yrotation Xrotation
												JOINT LeftHandMiddle4
												{
													OFFSET 2.741236 0.0 0.0
													CHANNELS 3 Zrotation Yrotation Xrotation
													End Site
													{
														OFFSET 0.000000 0.000000 0.000000
													}
												}
											}
										}
									}
									JOINT LeftHandRing1
									{
										OFFSET 8.921708 0.086752 -2.267442
										CHANNELS 3 Zrotation Yrotation Xrotation
										JOINT LeftHandRing2
										{
											OFFSET 4.06109 0.0 0.0
											CHANNELS 3 Zrotation Yrotation Xrotation
											JOINT LeftHandRing3
											{
												OFFSET 3.654981 0.0 0.0
												CHANNELS 3 Zrotation Yrotation Xrotation
												JOINT LeftHandRing4
												{
													OFFSET 2.741236 0.0 -0.0
													CHANNELS 3 Zrotation Yrotation Xrotation
													End Site
													{
														OFFSET 0.000000 0.000000 0.000000
													}
												}
											}
										}
									}
									JOINT LeftHandPinky1
									{
										OFFSET 7.976997 -0.173504 -4.467199
										CHANNELS 3 Zrotation Yrotation Xrotation
										JOINT LeftHandPinky2
										{
											OFFSET 3.350399 0.0 -0.0
											CHANNELS 3 Zrotation Yrotation Xrotation
											JOINT LeftHandPinky3
											{
												OFFSET 2.842763 0.0 -0.0
												CHANNELS 3 Zrotation Yrotation Xrotation
												JOINT LeftHandPinky4
												{
													OFFSET 2.639709 0.0 0.0
													CHANNELS 3 Zrotation Yrotation Xrotation
													End Site
													{
														OFFSET 0.000000 0.000000 0.000000
													}
												}
											}
										}
									}
									JOINT LeftForeArmEnd
									{
										OFFSET 0.000000 0.000000 0.000000
										CHANNELS 3 Zrotation Yrotation Xrotation
										End Site
										{
											OFFSET 0.000000 0.000000 0.000000
										}
									}
								}
								JOINT LeftArmEnd
								{
									OFFSET 0.000000 0.000000 0.000000
									CHANNELS 3 Zrotation Yrotation Xrotation
									End Site
									{
										OFFSET 0.000000 0.000000 0.000000
									}
								}
							}
						}
					}
				}
			}
		}
	}
	JOINT RightUpLeg
	{
		OFFSET -11.289943 -0.000000 0.000000
		CHANNELS 3 Zrotation Yrotation Xrotation
		JOINT RightLeg
		{
			OFFSET 0.000000 -38.200325 -0.000000
			CHANNELS 3 Zrotation Yrotation Xrotation
			JOINT RightFoot
			{
				OFFSET -0.000000 -39.900856 -0.000000
				CHANNELS 3 Zrotation Yrotation Xrotation
				JOINT RightToeBase
				{
					OFFSET -0.000000 -0.000000 15.261641
					CHANNELS 3 Zrotation Yrotation Xrotation
					JOINT RightToeBaseEnd
					{
						OFFSET 0.000000 0.000000 7.370709
						CHANNELS 3 Zrotation Yrotation Xrotation
						End Site
						{
							OFFSET 0.000000 0.000000 0.000000
						}
					}
				}
				JOINT RightLegEnd
				{
					OFFSET 0.000000 0.000000 0.000000
					CHANNELS 3 Zrotation Yrotation Xrotation
					End Site
					{
						OFFSET 0.000000 0.000000 0.000000
					}
				}
			}
			JOINT RightUpLegEnd
			{
				OFFSET 0.000000 0.000000 0.000000
				CHANNELS 3 Zrotation Yrotation Xrotation
				End Site
				{
					OFFSET 0.000000 0.000000 0.000000
				}
			}
		}
	}
	JOINT LeftUpLeg
	{
		OFFSET 11.315661 -0.000000 0.000000
		CHANNELS 3 Zrotation Yrotation Xrotation
		JOINT LeftLeg
		{
			OFFSET 0.000000 -38.200325 -0.000000
			CHANNELS 3 Zrotation Yrotation Xrotation
			JOINT LeftFoot
			{
				OFFSET 0.000000 -39.900856 -0.000000
				CHANNELS 3 Zrotation Yrotation Xrotation
				JOINT LeftToeBase
				{
					OFFSET 0.000000 -0.000000 15.261641
					CHANNELS 3 Zrotation Yrotation Xrotation
					JOINT LeftToeBaseEnd
					{
						OFFSET 0.000000 -0.000000 7.539996
						CHANNELS 3 Zrotation Yrotation Xrotation
						End Site
						{
							OFFSET 0.000000 0.000000 0.000000
						}
					}
				}
				JOINT LeftLegEnd
				{
					OFFSET 0.000000 0.000000 0.000000
					CHANNELS 3 Zrotation Yrotation Xrotation
					End Site
					{
						OFFSET 0.000000 0.000000 0.000000
					}
				}
			}
			JOINT LeftUpLegEnd
			{
				OFFSET 0.000000 0.000000 0.000000
				CHANNELS 3 Zrotation Yrotation Xrotation
				End Site
				{
					OFFSET 0.000000 0.000000 0.000000
				}
			}
		}
	}
}
MOTION
Frames: 6
Frame Time: 0.03333333333333333
-5.182981 86.320488 8.021894 -4.474329 20.620106 -15.424073 5.532037 -0.854080 6.988630 7.167435 -0.800317 5.932935 -8.171861 10.679327 7.891884 -6.192914 4.390968 -0.018145 12.520811 -8.092623 11.409426 -5.450116 -8.172338 -7.051964 -0.133476 2.019625 -25.961540 0.000000 -0.000000 0.000000 -6.494491999999994 13.749304 -1.701157 5.115262 44.94986 -4.760937 1.358341 106.247292 -22.210917 -11.619598 3.923065 5.270187 9.740283 40.271706 1.758438 0.000000 -23.76 0.0 -0.000000 -16.5 0.0 -0.000000 0.0 0.0 11.091518 4.082103 0.0 7.764063 -0.0 0.0 7.764063 -0.0 0.0 -0.000000 0.0 0.0 16.754347 0.103367 0.0 11.728043 -0.0 0.0 11.728043 0.0 0.0 -0.000000 0.0 0.0 28.439438 -4.246118 0.0 19.907606 -0.0 0.0 19.907606 0.0 0.0 -0.000000 -0.0 0.0 37.655861 -11.052793 0.0 26.359102 -0.0 0.0 26.359102 0.0 0.0 0.000000 0.0 0.0 0.000000 -0.0 0.0 -0.000000 -0.000000 0.000000 3.635002 -8.70578 -0.653162 -45.404408 -20.727131 5.699843 -3.895236 -95.57888 -25.862274 12.115553 -11.754019 -9.923002 -8.247545 -40.952408 1.593391 -0.000000 20.16 0.0 -0.000000 14.0 -0.0 0.000000 0.0 -0.0 -9.328493 7.300718 -0.0 -6.529945 0.0 -0.0 -6.529945 0.0 -0.0 -0.000000 0.0 0.0 -8.865166 8.634398 -0.0 -6.205616 0.0 -0.0 -6.205616 0.0 -0.0 0.000000 0.0 0.0 -7.707433 9.39109 -0.0 -5.395203 0.0 0.0 -5.395203 0.0 -0.0 0.000000 0.0 0.0 -5.658495 10.054634 -0.0 -3.960947 0.0 0.0 -3.960947 0.0 -0.0 0.000000 0.0 0.0 0.000000 0.0 0.0 0.000000 -0.000000 0.000000 -2.276717 -21.401127 17.090855 -0.246394 -1.055655 13.138629 -0.254519 -22.844721 14.495179 -0.372044 -0.761110 -29.110552 0.000000 0.000000 0.000000 0.000000 0.000000 -0.000000 -0.000000 -0.000000 0.000000 11.483294 -7.301692 0.335444 0.539292 1.204809 24.239002 -1.045712 -8.550349 13.396041 0.032576 0.384930 -30.750996 -0.000000 -0.000000 -0.000000 -0.000000 0.000000 -0.000000 -0.000000 -0.000000 0.000000
-4.075963 86.321365 7.880662 -4.420719 21.993021 -14.988229 4.918973 -0.860609 6.990632 6.389937 -0.683986 5.673136 -7.578205 9.842111 8.270921 -5.821572 3.998925 -0.348382 12.842006 -7.583293 9.398204 -5.397673 -7.529478 -8.499701 -0.052471 2.238949 -24.896038 0.000000 -0.000000 -0.000000 -7.119277999999994 15.574266 -2.095294 5.413331 47.18082 -3.539178 -1.475007 109.274246 -21.015583 -11.423157 3.750763 0.451965 8.844157 40.678265 1.663611 0.000000 -21.6 0.0 -0.000000 -15.0 0.0 -0.000000 -0.0 0.0 7.643483 2.98006 0.0 5.350438 0.0 0.0 5.350438 0.0 0.0 -0.000000 -0.0 0.0 11.588295 -0.16939 0.0 8.111806 0.0 0.0 8.111806 -0.0 0.0 0.000000 0.0 0.0 19.200209 -4.348169 0.0 13.440145 -0.0 0.0 13.440145 -0.0 0.0 0.000000 -0.0 0.0 24.902046 -10.595123 0.0 17.431433 0.0 0.0 17.431433 0.0 0.0 0.000000 -0.0 0.0 0.000000 -0.0 0.0 0.000000 -0.000000 0.000000 5.408317999999994 -11.443166 -1.258956 -41.030533 -28.871204 -0.729845 -3.920310 -95.906059 -25.706339 10.946877 -11.751121 -10.696767 -7.353996 -41.368053 1.477447 0.000000 18.0 -0.0 0.000000 12.5 -0.0 -0.000000 0.0 0.0 -5.657446 5.402733 -0.0 -3.960212 0.0 -0.0 -3.960212 0.0 0.0 0.000000 0.0 -0.0 -5.582991 6.819283 -0.0 -3.908093 0.0 -0.0 -3.908093 0.0 0.0 0.000000 0.0 -0.0 -5.070645 7.589703 -0.0 -3.549452 0.0 0.0 -3.549452 0.0 0.0 0.000000 0.0 -0.0 -3.762658 8.194421 -0.0 -2.633860 0.0 -0.0 -2.633860 0.0 -0.0 0.000000 0.0 -0.0 0.000000 0.0 -0.0 0.000000 -0.000000 0.000000 -3.158534 -21.842760 16.844223 -0.280938 -1.178087 13.413692 0.784763 -23.291885 14.484322 -0.489248 -0.667614 -29.120796 0.000000 0.000000 0.000000 -0.000000 0.000000 -0.000000 -0.000000 -0.000000 0.000000 10.404142 -8.236230 -0.771800 0.539190 1.157637 25.161018 -0.187518 -8.489327 12.989708 0.031510 0.381673 -30.376940 0.000000 0.000000 -0.000000 -0.000000 0.000000 -0.000000 -0.000000 0.000000 0.000000
-2.953020 86.342964 7.654828 -4.518101 22.907564 -13.920177 4.487652 -0.813249 6.854653 4.878898 -0.302501 5.001487 -5.751315 8.612801 8.462078 -5.368618 3.644425 -0.372633 12.265856 -6.689029 7.069847 -5.319904 -6.937126 -9.923400 0.292876 2.454331 -23.594479 0.000000 -0.000000 0.000000 -8.433914000000001 16.728125 -2.654274 3.971643 48.532063 -3.53091 -1.295384 111.896233 -20.343788 -11.776917 4.449768 -0.266159 7.651653 41.228928 1.517517 0.000000 -18.719999 0.0 0.000000 -13.0 0.0 0.000000 0.0 0.0 1.874004 3.974365 0.0 1.311803 0.0 0.0 1.311803 -0.0 0.0 0.000000 0.0 0.0 4.089187 1.346191 0.0 2.862431 0.0 0.0 2.862431 0.0 0.0 0.000000 -0.0 0.0 7.846858 -2.146158 0.0 5.492800 -0.0 0.0 5.492800 0.0 0.0 -0.000000 0.0 0.0 10.494181 -7.029119 0.0 7.345926 0.0 0.0 7.345926 -0.0 0.0 -0.000000 0.0 0.0 0.000000 -0.0 0.0 -0.000000 -0.000000 0.000000 8.088356000000005 -13.743948 -2.249873 -34.922905 -34.74424 -4.243808 -4.507271 -94.930473 -27.65995 7.374663 -9.62011 -16.712439 -6.462281 -41.788757 1.348641 -0.000000 15.84 0.0 0.000000 11.0 0.0 0.000000 0.0 -0.0 -1.363702 2.565628 -0.0 -0.954591 0.0 0.0 -0.954591 0.0 0.0 -0.000000 0.0 -0.0 -1.852643 4.24334 -0.0 -1.296850 0.0 0.0 -1.296850 0.0 0.0 0.000000 0.0 0.0 -2.297963 5.237765 0.0 -1.608574 0.0 -0.0 -1.608574 0.0 0.0 0.000000 0.0 0.0 -2.008226 6.093357 -0.0 -1.405759 0.0 0.0 -1.405759 0.0 0.0 0.000000 0.0 -0.0 0.000000 0.0 -0.0 0.000000 -0.000000 0.000000 -3.451854 -21.789814 15.562244 -0.322288 -1.297866 13.947033 1.845064 -23.830154 14.715944 -0.612155 -0.608651 -29.262953 0.000000 0.000000 0.000000 -0.000000 0.000000 -0.000000 -0.000000 -0.000000 0.000000 9.691245 -8.486359 -2.434675 0.533757 1.092394 26.042585 0.736334 -8.566135 12.590383 0.030085 0.394500 -30.007421 0.000000 -0.000000 -0.000000 -0.000000 0.000000 -0.000000 -0.000000 -0.000000 0.000000
-1.786645 86.411636 7.428492 -4.570590 22.976410 -12.680992 4.092788 -0.745975 6.653547 3.807383 -0.035677 4.541659 -4.464180 7.870502 7.901810 -4.882585 3.418231 -0.333708 11.537237 -5.763146 5.805631 -5.196723 -6.690702 -10.878723 0.622637 2.677158 -23.073475 0.000000 -0.000000 -0.000000 -10.179519999999997 17.585585 -3.373337 2.908971 48.460251 -5.188211 -1.169307 113.247818 -19.786798 -11.693054 4.51004 -4.246735 7.056543 41.507744 1.435947 -0.000000 -17.280001 0.0 -0.000000 -12.0 0.0 0.000000 -0.0 0.0 -0.844311 5.858103 0.0 -0.000000 -0.0 0.0 -0.000000 -0.0 0.0 0.000000 0.0 0.0 0.463709 3.166531 0.0 0.324597 0.0 0.0 0.324597 0.0 0.0 -0.000000 0.0 0.0 2.274449 -0.04534 0.0 1.592114 0.0 0.0 1.592114 -0.0 0.0 0.000000 0.0 0.0 3.485708 -4.056976 0.0 2.439996 0.0 0.0 2.439996 -0.0 0.0 0.000000 -0.0 0.0 0.000000 -0.0 0.0 -0.000000 -0.000000 0.000000 10.698441000000003 -15.927976 -3.448062 -27.436695 -37.999111 -6.849922 -5.447699 -92.715668 -30.45644 3.484627 -7.355899 -18.864668 -6.165488 -41.930065 1.302824 0.000000 15.12 0.0 0.000000 10.5 0.0 -0.000000 0.0 -0.0 -0.289934 2.391328 0.0 -0.202954 0.0 -0.0 -0.202954 0.0 0.0 0.000000 0.0 0.0 -1.185129 3.966105 0.0 -0.829590 0.0 0.0 -0.829590 0.0 -0.0 0.000000 0.0 -0.0 -2.393863 4.883286 0.0 -1.675704 0.0 0.0 -1.675704 0.0 0.0 0.000000 0.0 0.0 -2.775916 5.815178 0.0 -1.943141 0.0 0.0 -1.943141 0.0 -0.0 0.000000 0.0 -0.0 0.000000 0.0 -0.0 0.000000 -0.000000 0.000000 -3.702656 -21.236172 13.591808 -0.360758 -1.319517 15.292664 2.992587 -23.920261 15.098430 -0.563129 -0.606438 -29.680573 0.000000 -0.000000 0.000000 -0.000000 0.000000 0.000000 -0.000000 0.000000 0.000000 8.989491 -8.494431 -3.741249 0.510351 1.022541 26.525721 1.567540 -8.035428 12.265288 0.038081 0.406036 -29.594156 0.000000 0.000000 -0.000000 -0.000000 0.000000 -0.000000 -0.000000 -0.000000 0.000000
-0.595030 86.570526 7.267354 -4.688994 22.298710 -11.737785 3.860205 -0.674940 6.599199 3.110475 0.111014 4.304935 -3.598923 7.088409 7.033749 -4.475091 3.157609 -0.466493 10.728212 -4.752414 5.528844 -4.962076 -6.022318 -11.296720 0.847953 2.848957 -23.051983 0.000000 0.000000 -0.000000 -11.706902 17.950508 -3.971556 2.155853 48.478954 -7.565557 -1.189916 113.159981 -20.052427 -12.800598 5.420013 -10.875473 7.056543 41.507744 1.435947 0.000000 -17.280001 0.0 0.000000 -12.0 0.0 0.000000 0.0 0.0 -1.272900 3.784486 0.0 0.000000 -0.0 0.0 0.000000 0.0 0.0 0.000000 -0.0 0.0 -0.061086 1.691912 0.0 -0.000000 -0.0 0.0 0.000000 0.0 0.0 0.000000 0.0 0.0 1.589986 -0.795452 0.0 1.112990 -0.0 0.0 1.112990 0.0 0.0 -0.000000 0.0 0.0 2.686448 -4.108581 0.0 1.880514 0.0 0.0 1.880514 -0.0 0.0 -0.000000 0.0 0.0 0.000000 0.0 0.0 -0.000000 -0.000000 0.000000 12.944541999999998 -17.146915 -4.50704 -21.012671 -38.699898 -9.347944 -5.829890 -90.47261 -31.290848 1.350215 -6.463477 -21.255924 -6.462281 -41.788757 1.348641 0.000000 15.84 0.0 -0.000000 11.0 0.0 0.000000 0.0 -0.0 -1.220705 2.848843 -0.0 -0.854494 0.0 -0.0 -0.854494 0.0 -0.0 0.000000 0.0 -0.0 -2.164788 4.06105 -0.0 -1.515351 0.0 -0.0 -1.515351 0.0 -0.0 -0.000000 0.0 0.0 -3.506047 4.382042 -0.0 -2.454233 0.0 0.0 -2.454233 0.0 -0.0 -0.000000 0.0 0.0 -3.945058 4.808922 -0.0 -2.761541 0.0 0.0 -2.761541 0.0 0.0 -0.000000 0.0 0.0 0.000000 0.0 -0.0 0.000000 -0.000000 0.000000 -4.107598 -20.516699 11.916074 -0.401344 -1.351507 16.541170 3.966152 -23.191359 16.137463 -0.521165 -0.673922 -30.415771 0.000000 0.000000 0.000000 -0.000000 0.000000 0.000000 -0.000000 0.000000 0.000000 8.291387 -8.673015 -4.323907 0.474898 0.946346 26.650412 2.227432 -6.702213 12.143219 0.053905 0.413358 -29.199957 0.000000 -0.000000 -0.000000 -0.000000 0.000000 -0.000000 -0.000000 -0.000000 0.000000
0.625808 86.765984 7.167765 -4.816709 20.706633 -10.836704 3.718307 -0.649825 6.450278 2.887737 0.132871 4.077826 -3.114105 6.492649 6.218151 -4.280589 2.958117 -0.719200 10.048141 -3.808370 5.745391 -4.775994 -5.240514 -11.275290 0.851590 2.921173 -23.164677 0.000000 -0.000000 -0.000000 -13.027039000000002 18.354763 -4.539083 1.862579 47.799404 -10.195475 -1.316745 112.794083 -21.271425 -14.342041 4.467651 -18.777969 7.056543 41.507744 1.435947 0.000000 -17.280001 0.0 0.000000 -12.0 0.0 0.000000 0.0 0.0 -0.407120 4.293942 0.0 0.000000 0.0 0.0 -0.000000 -0.0 0.0 0.000000 0.0 0.0 0.789510 2.373952 0.0 0.552657 0.0 0.0 0.552657 0.0 0.0 -0.000000 -0.0 0.0 2.406314 0.174582 0.0 1.684420 0.0 0.0 1.684420 -0.0 0.0 0.000000 0.0 0.0 3.421441 -2.842785 0.0 2.395009 -0.0 0.0 2.395009 0.0 0.0 -0.000000 0.0 0.0 0.000000 -0.0 0.0 -0.000000 -0.000000 0.000000 14.242087999999995 -17.656794 -5.10703 -15.768764 -37.758915 -11.029819 -5.897316 -90.456894 -31.668144 -2.549254 -6.595473 -30.236603 -6.462281 -41.788757 1.348641 0.000000 15.84 0.0 -0.000000 11.0 0.0 -0.000000 0.0 0.0 -0.895333 1.6126 -0.0 -0.626733 0.0 -0.0 -0.626733 0.0 -0.0 0.000000 0.0 -0.0 -2.132989 3.067281 -0.0 -1.493092 0.0 -0.0 -1.493092 0.0 -0.0 -0.000000 0.0 0.0 -4.008982 3.734185 -0.0 -2.806287 0.0 0.0 -2.806287 0.0 -0.0 0.000000 0.0 -0.0 -4.889057 4.461691 -0.0 -3.422340 0.0 -0.0 -3.422340 0.0 0.0 0.000000 0.0 0.0 0.000000 0.0 -0.0 0.000000 0.000000 0.000000 -4.447855 -19.268700 10.103438 -0.438992 -1.365319 17.796587 4.809412 -22.162745 17.590170 -0.477097 -0.794194 -31.223577 0.000000 0.000000 0.000000 0.000000 -0.000000 0.000000 -0.000000 0.000000 0.000000 7.610424 -8.664129 -4.405749 0.439418 0.882744 26.464897 2.756515 -4.709551 12.053893 0.071140 0.418493 -28.897854 0.000000 -0.000000 -0.000000 -0.000000 0.000000 -0.000000 -0.000000 0.000000 0.000000
